<svg width="16" height="16" viewBox="0 0 16 16" fill="none" xmlns="http://www.w3.org/2000/svg">
<mask id="path-1-inside-1_436_1909" fill="white">
<path d="M10.1292 0.293009C9.7063 0.168893 9.27194 0.0879565 8.83274 0.0514388C7.861 -0.0628493 6.87629 0.0137393 5.9339 0.276904L5.87753 0.293009C4.18799 0.756943 2.69765 1.76308 1.63572 3.15667C0.573789 4.55026 -0.000913834 6.25412 1.09073e-06 8.0062C0.000916015 9.75828 0.577398 11.4615 1.64078 12.854C2.70417 14.2465 4.19556 15.2511 5.88559 15.7132C6.50427 15.8875 7.14322 15.9796 7.78594 15.987C7.85763 16.0001 7.93052 16.0055 8.00335 16.0031C8.71926 16.0045 9.43192 15.907 10.1211 15.7132C11.8097 15.2495 13.2994 14.2443 14.3614 12.852C15.4234 11.4597 15.9991 9.7573 16 8.0062C16.0009 6.25509 15.427 4.55209 14.3665 3.1587C13.3059 1.7653 11.8173 0.758542 10.1292 0.293009ZM9.91176 1.06603C10.9543 1.35464 11.9185 1.87442 12.7326 2.58678C13.5467 3.29913 14.1899 4.18575 14.6143 5.18078H11.184C10.7746 3.5999 10.0212 2.1289 8.97769 0.872778C9.29327 0.914742 9.60543 0.979327 9.91176 1.06603ZM8.00335 0.993563C9.10346 2.18517 9.90636 3.6199 10.3466 5.18078H5.64402C6.08238 3.61613 6.89172 2.18031 8.00335 0.995173V0.993563ZM10.5479 5.98602C10.8056 7.31841 10.8056 8.68784 10.5479 10.0202H5.45881C5.32252 9.35794 5.25506 8.68333 5.2575 8.00715C5.25547 7.32834 5.32292 6.65109 5.45881 5.98602H10.5479ZM6.03858 1.08214L6.09495 1.06603C6.40199 0.984227 6.714 0.922363 7.02902 0.88083C5.97984 2.13194 5.2233 3.60156 4.81463 5.18239H1.39641C1.81915 4.1984 2.45472 3.32034 3.2574 2.61136C4.06008 1.90239 5.00992 1.38012 6.03858 1.08214ZM0.804559 8.00715C0.80469 7.32251 0.905067 6.64158 1.1025 5.98602H4.63747C4.51488 6.65276 4.45289 7.32923 4.45227 8.00715C4.45252 8.68242 4.51451 9.35626 4.63747 10.0202H1.1025C0.904487 9.36757 0.804089 8.6892 0.804559 8.00715ZM6.09495 14.9402C5.0513 14.6539 4.08603 14.135 3.27159 13.4224C2.45715 12.7097 1.81467 11.8219 1.39238 10.8255H4.80657C5.21948 12.4099 5.98159 13.8818 7.03707 15.1335C6.7187 15.0923 6.40381 15.0277 6.09495 14.9402ZM5.64402 10.8255H10.3466C9.9116 12.3909 9.10813 13.8294 8.00335 15.0207C6.89861 13.8268 6.09038 12.3897 5.64402 10.8255ZM9.91176 14.9402C9.60126 15.0208 9.2868 15.0853 8.96964 15.1335C10.0156 13.8778 10.7717 12.4068 11.184 10.8255H14.6143C14.1908 11.8211 13.548 12.7083 12.7337 13.4207C11.9194 14.1332 10.9548 14.6526 9.91176 14.9402ZM11.3612 10.0202C11.6108 8.68708 11.6108 7.31917 11.3612 5.98602H14.8962C15.0975 6.6407 15.1979 7.32222 15.1941 8.00715C15.1961 8.68872 15.0984 9.36692 14.9042 10.0202H11.3612Z"/>
</mask>
<path d="M10.1292 0.293009C9.7063 0.168893 9.27194 0.0879565 8.83274 0.0514388C7.861 -0.0628493 6.87629 0.0137393 5.9339 0.276904L5.87753 0.293009C4.18799 0.756943 2.69765 1.76308 1.63572 3.15667C0.573789 4.55026 -0.000913834 6.25412 1.09073e-06 8.0062C0.000916015 9.75828 0.577398 11.4615 1.64078 12.854C2.70417 14.2465 4.19556 15.2511 5.88559 15.7132C6.50427 15.8875 7.14322 15.9796 7.78594 15.987C7.85763 16.0001 7.93052 16.0055 8.00335 16.0031C8.71926 16.0045 9.43192 15.907 10.1211 15.7132C11.8097 15.2495 13.2994 14.2443 14.3614 12.852C15.4234 11.4597 15.9991 9.7573 16 8.0062C16.0009 6.25509 15.427 4.55209 14.3665 3.1587C13.3059 1.7653 11.8173 0.758542 10.1292 0.293009ZM9.91176 1.06603C10.9543 1.35464 11.9185 1.87442 12.7326 2.58678C13.5467 3.29913 14.1899 4.18575 14.6143 5.18078H11.184C10.7746 3.5999 10.0212 2.1289 8.97769 0.872778C9.29327 0.914742 9.60543 0.979327 9.91176 1.06603ZM8.00335 0.993563C9.10346 2.18517 9.90636 3.6199 10.3466 5.18078H5.64402C6.08238 3.61613 6.89172 2.18031 8.00335 0.995173V0.993563ZM10.5479 5.98602C10.8056 7.31841 10.8056 8.68784 10.5479 10.0202H5.45881C5.32252 9.35794 5.25506 8.68333 5.2575 8.00715C5.25547 7.32834 5.32292 6.65109 5.45881 5.98602H10.5479ZM6.03858 1.08214L6.09495 1.06603C6.40199 0.984227 6.714 0.922363 7.02902 0.88083C5.97984 2.13194 5.2233 3.60156 4.81463 5.18239H1.39641C1.81915 4.1984 2.45472 3.32034 3.2574 2.61136C4.06008 1.90239 5.00992 1.38012 6.03858 1.08214ZM0.804559 8.00715C0.80469 7.32251 0.905067 6.64158 1.1025 5.98602H4.63747C4.51488 6.65276 4.45289 7.32923 4.45227 8.00715C4.45252 8.68242 4.51451 9.35626 4.63747 10.0202H1.1025C0.904487 9.36757 0.804089 8.6892 0.804559 8.00715ZM6.09495 14.9402C5.0513 14.6539 4.08603 14.135 3.27159 13.4224C2.45715 12.7097 1.81467 11.8219 1.39238 10.8255H4.80657C5.21948 12.4099 5.98159 13.8818 7.03707 15.1335C6.7187 15.0923 6.40381 15.0277 6.09495 14.9402ZM5.64402 10.8255H10.3466C9.9116 12.3909 9.10813 13.8294 8.00335 15.0207C6.89861 13.8268 6.09038 12.3897 5.64402 10.8255ZM9.91176 14.9402C9.60126 15.0208 9.2868 15.0853 8.96964 15.1335C10.0156 13.8778 10.7717 12.4068 11.184 10.8255H14.6143C14.1908 11.8211 13.548 12.7083 12.7337 13.4207C11.9194 14.1332 10.9548 14.6526 9.91176 14.9402ZM11.3612 10.0202C11.6108 8.68708 11.6108 7.31917 11.3612 5.98602H14.8962C15.0975 6.6407 15.1979 7.32222 15.1941 8.00715C15.1961 8.68872 15.0984 9.36692 14.9042 10.0202H11.3612Z" fill="black"/>
<path d="M10.1292 0.293009L9.42511 2.69182L9.44478 2.69759L9.46454 2.70304L10.1292 0.293009ZM8.83274 0.0514388L8.54073 2.53433L8.58309 2.53931L8.62559 2.54284L8.83274 0.0514388ZM5.9339 0.276904L5.26149 -2.13097L5.25429 -2.12896L5.24711 -2.12691L5.9339 0.276904ZM5.87753 0.293009L6.53951 2.70377L6.55194 2.70036L6.56433 2.69682L5.87753 0.293009ZM5.88559 15.7132L6.56349 13.3069L6.55428 13.3043L6.54504 13.3018L5.88559 15.7132ZM7.78594 15.987L8.23449 13.5276L8.02638 13.4896L7.81485 13.4872L7.78594 15.987ZM8.00335 16.0031L8.00821 13.5031L7.96513 13.5031L7.92207 13.5045L8.00335 16.0031ZM10.1211 15.7132L9.45901 13.3025L9.45181 13.3045L9.44462 13.3065L10.1211 15.7132ZM16 8.0062L13.5 8.00489L16 8.0062ZM9.91176 1.06603L9.23088 3.47153L9.23783 3.4735L9.24479 3.47542L9.91176 1.06603ZM14.6143 5.18078V7.68078H18.3987L16.9139 4.19988L14.6143 5.18078ZM11.184 5.18078L8.76388 5.80757L9.24902 7.68078H11.184V5.18078ZM8.97769 0.872778L9.30722 -1.60541L2.9685 -2.4483L7.05471 2.47032L8.97769 0.872778ZM8.00335 0.993563L9.84024 -0.702273L5.50335 -5.39987V0.993563H8.00335ZM10.3466 5.18078V7.68078H13.6492L12.7527 4.50216L10.3466 5.18078ZM5.64402 5.18078L3.23671 4.50634L2.34734 7.68078H5.64402V5.18078ZM8.00335 0.995173L9.82676 2.70549L10.5034 1.98416V0.995173H8.00335ZM10.5479 5.98602L13.0024 5.51133L12.6107 3.48602H10.5479V5.98602ZM10.5479 10.0202V12.5202H12.6107L13.0024 10.4949L10.5479 10.0202ZM5.45881 10.0202L3.01012 10.5241L3.42088 12.5202H5.45881V10.0202ZM5.2575 8.00715L7.75749 8.01618L7.75752 8.00792L7.75749 7.99965L5.2575 8.00715ZM5.45881 5.98602V3.48602H3.41797L3.00942 5.48555L5.45881 5.98602ZM6.03858 1.08214L5.35178 -1.32169L5.34298 -1.31914L6.03858 1.08214ZM6.09495 1.06603L5.4513 -1.34969L5.42967 -1.34393L5.40815 -1.33778L6.09495 1.06603ZM7.02902 0.88083L8.9446 2.48724L13.0748 -2.43788L6.70225 -1.59772L7.02902 0.88083ZM4.81463 5.18239V7.68239H6.75052L7.23505 5.80811L4.81463 5.18239ZM1.39641 5.18239L-0.900583 4.19556L-2.3986 7.68239H1.39641V5.18239ZM0.804559 8.00715L3.30456 8.00887L3.30456 8.00763L0.804559 8.00715ZM1.1025 5.98602V3.48602H-0.755516L-1.2913 5.2651L1.1025 5.98602ZM4.63747 5.98602L7.09625 6.43812L7.63907 3.48602H4.63747V5.98602ZM4.45227 8.00715L1.95227 8.00487L1.95227 8.00807L4.45227 8.00715ZM4.63747 10.0202V12.5202H7.64296L7.09568 9.565L4.63747 10.0202ZM1.1025 10.0202L-1.28983 10.746L-0.751572 12.5202H1.1025V10.0202ZM6.09495 14.9402L6.7765 12.5349L6.76641 12.5321L6.75631 12.5293L6.09495 14.9402ZM1.39238 10.8255V8.32547H-2.38242L-0.909428 11.801L1.39238 10.8255ZM4.80657 10.8255L7.22577 10.195L6.73855 8.32547H4.80657V10.8255ZM7.03707 15.1335L6.71664 17.6129L13.0929 18.4369L8.94827 13.5219L7.03707 15.1335ZM5.64402 10.8255V8.32547H2.33081L3.23998 11.5115L5.64402 10.8255ZM10.3466 10.8255L12.7553 11.4948L13.636 8.32547H10.3466V10.8255ZM8.00335 15.0207L6.16839 16.7187L8.00132 18.6996L9.83645 16.7207L8.00335 15.0207ZM9.91176 14.9402L10.5401 17.36L10.5582 17.3553L10.5763 17.3503L9.91176 14.9402ZM8.96964 15.1335L7.04872 13.5334L2.83426 18.5931L9.34471 17.6052L8.96964 15.1335ZM11.184 10.8255V8.32547H9.25235L8.76493 10.1946L11.184 10.8255ZM14.6143 10.8255L16.9149 11.804L18.3945 8.32547H14.6143V10.8255ZM11.3612 10.0202L8.90388 9.56013L8.34963 12.5202H11.3612V10.0202ZM11.3612 5.98602V3.48602H8.34963L8.90388 6.44612L11.3612 5.98602ZM14.8962 5.98602L17.2857 5.25118L16.7429 3.48602H14.8962V5.98602ZM15.1941 8.00715L12.6941 7.99309L12.6941 8.00372L12.6941 8.01435L15.1941 8.00715ZM14.9042 10.0202V12.5202H16.7692L17.3006 10.7325L14.9042 10.0202ZM10.8332 -2.1058C10.2483 -2.27749 9.64743 -2.38945 9.0399 -2.43996L8.62559 2.54284C8.89645 2.56536 9.16432 2.61528 9.42511 2.69182L10.8332 -2.1058ZM9.12476 -2.43145C7.82972 -2.58376 6.51741 -2.48169 5.26149 -2.13097L6.60631 2.68478C7.23517 2.50917 7.89228 2.45806 8.54073 2.53433L9.12476 -2.43145ZM5.24711 -2.12691L5.19074 -2.1108L6.56433 2.69682L6.6207 2.68072L5.24711 -2.12691ZM5.21556 -2.11776C2.99766 -1.50874 1.04126 -0.187968 -0.352759 1.64142L3.6242 4.67191C4.35404 3.71412 5.37832 3.02263 6.53951 2.70377L5.21556 -2.11776ZM-0.352759 1.64142C-1.74678 3.47082 -2.5012 5.70751 -2.5 8.0075L2.5 8.00489C2.49937 6.80072 2.89435 5.62969 3.6242 4.67191L-0.352759 1.64142ZM-2.5 8.0075C-2.4988 10.3075 -1.74204 12.5434 -0.346112 14.3713L3.62768 11.3367C2.89683 10.3797 2.50063 9.20906 2.5 8.00489L-2.5 8.0075ZM-0.346112 14.3713C1.04982 16.1993 3.0076 17.518 5.22613 18.1247L6.54504 13.3018C5.38352 12.9841 4.35852 12.2937 3.62768 11.3367L-0.346112 14.3713ZM5.20768 18.1196C6.03765 18.3534 6.8948 18.4769 7.75703 18.4869L7.81485 13.4872C7.39163 13.4823 6.97089 13.4217 6.56349 13.3069L5.20768 18.1196ZM7.33739 18.4465C7.58379 18.4914 7.83429 18.51 8.08463 18.5018L7.92207 13.5045C8.02675 13.501 8.13147 13.5088 8.23449 13.5276L7.33739 18.4465ZM7.9985 18.5031C8.94474 18.505 9.88668 18.376 10.7976 18.12L9.44462 13.3065C8.97716 13.4379 8.49378 13.5041 8.00821 13.5031L7.9985 18.5031ZM10.7832 18.124C12.9997 17.5152 14.9551 16.1958 16.3491 14.3682L12.3737 11.3358C11.6437 12.2928 10.6197 12.9837 9.45901 13.3025L10.7832 18.124ZM16.3491 14.3682C17.7432 12.5407 18.4988 10.306 18.5 8.0075L13.5 8.00489C13.4994 9.20855 13.1037 10.3787 12.3737 11.3358L16.3491 14.3682ZM18.5 8.0075C18.5012 5.70896 17.7479 3.47356 16.3558 1.64455L12.3771 4.67284C13.1062 5.63063 13.5006 6.80123 13.5 8.00489L18.5 8.0075ZM16.3558 1.64455C14.9636 -0.184458 13.0096 -1.50596 10.7938 -2.11703L9.46454 2.70304C10.6249 3.02304 11.6481 3.71506 12.3771 4.67284L16.3558 1.64455ZM9.24479 3.47542C9.92542 3.66383 10.5548 4.00317 11.0863 4.46822L14.3789 0.705334C13.2821 -0.254324 11.9832 -0.954557 10.5787 -1.34335L9.24479 3.47542ZM11.0863 4.46822C11.6178 4.93327 12.0377 5.51208 12.3148 6.16168L16.9139 4.19988C16.3421 2.85942 15.4756 1.66499 14.3789 0.705334L11.0863 4.46822ZM14.6143 2.68078H11.184V7.68078H14.6143V2.68078ZM13.6042 4.55399C13.1025 2.61688 12.1794 0.814407 10.9007 -0.724764L7.05471 2.47032C7.8631 3.44339 8.44671 4.58292 8.76388 5.80757L13.6042 4.55399ZM8.64815 3.35096C8.84503 3.37714 9.03977 3.41744 9.23088 3.47153L10.5926 -1.33946C10.1711 -1.45878 9.74151 -1.54766 9.30722 -1.60541L8.64815 3.35096ZM6.16647 2.6894C6.99932 3.59152 7.60717 4.67771 7.94045 5.8594L12.7527 4.50216C12.2055 2.56209 11.2076 0.77881 9.84024 -0.702273L6.16647 2.6894ZM10.3466 2.68078H5.64402V7.68078H10.3466V2.68078ZM8.05132 5.85523C8.3812 4.6778 8.99024 3.59733 9.82676 2.70549L6.17995 -0.715143C4.7932 0.763301 3.78356 2.55446 3.23671 4.50634L8.05132 5.85523ZM10.5034 0.995173V0.993563H5.50335V0.995173H10.5034ZM8.09337 6.4607C8.29041 7.47955 8.29041 8.52671 8.09337 9.54556L13.0024 10.4949C13.3207 8.84897 13.3207 7.15728 13.0024 5.51133L8.09337 6.4607ZM10.5479 7.52024H5.45881V12.5202H10.5479V7.52024ZM7.9075 9.51634C7.80594 9.02279 7.75567 8.52007 7.75749 8.01618L2.75752 7.99812C2.75446 8.84658 2.83911 9.69309 3.01012 10.5241L7.9075 9.51634ZM7.75749 7.99965C7.75597 7.49144 7.80647 6.98441 7.90821 6.48649L3.00942 5.48555C2.83937 6.31778 2.75497 7.16523 2.75752 8.01466L7.75749 7.99965ZM5.45881 8.48602H10.5479V3.48602H5.45881V8.48602ZM6.72538 3.48595L6.78174 3.46985L5.40815 -1.33778L5.35178 -1.32167L6.72538 3.48595ZM6.73859 3.48176C6.94147 3.4277 7.14764 3.38683 7.35579 3.35938L6.70225 -1.59772C6.28036 -1.5421 5.8625 -1.45925 5.4513 -1.34969L6.73859 3.48176ZM5.11344 -0.725578C3.82506 0.810763 2.89604 2.61543 2.3942 4.55667L7.23505 5.80811C7.55055 4.58768 8.13462 3.45311 8.9446 2.48724L5.11344 -0.725578ZM4.81463 2.68239H1.39641V7.68239H4.81463V2.68239ZM3.69339 6.16923C3.97031 5.52468 4.38663 4.94952 4.91241 4.48511L1.60239 0.737612C0.522812 1.69116 -0.33201 2.87213 -0.900583 4.19556L3.69339 6.16923ZM4.91241 4.48511C5.43819 4.02071 6.06037 3.67861 6.73418 3.48342L5.34298 -1.31914C3.95946 -0.918364 2.68197 -0.215937 1.60239 0.737612L4.91241 4.48511ZM3.30456 8.00763C3.30464 7.56703 3.36924 7.12882 3.4963 6.70693L-1.2913 5.2651C-1.55911 6.15433 -1.69526 7.07799 -1.69544 8.00667L3.30456 8.00763ZM1.1025 8.48602H4.63747V3.48602H1.1025V8.48602ZM2.17869 5.53391C2.02881 6.34904 1.95303 7.17607 1.95227 8.00487L6.95227 8.00944C6.95275 7.48239 7.00094 6.95648 7.09625 6.43812L2.17869 5.53391ZM1.95227 8.00807C1.95257 8.83574 2.02856 9.66164 2.17927 10.4755L7.09568 9.565C7.00046 9.05087 6.95246 8.52911 6.95227 8.00623L1.95227 8.00807ZM4.63747 7.52024H1.1025V12.5202H4.63747V7.52024ZM3.49482 9.29445C3.36837 8.87765 3.30426 8.44444 3.30456 8.00887L-1.69544 8.00543C-1.69608 8.93396 -1.5594 9.85748 -1.28983 10.746L3.49482 9.29445ZM6.75631 12.5293C6.07672 12.3429 5.44818 12.005 4.91785 11.5409L1.62533 15.3038C2.72388 16.265 4.02587 16.965 5.43359 17.3512L6.75631 12.5293ZM4.91785 11.5409C4.38752 11.0769 3.96917 10.4988 3.69419 9.84993L-0.909428 11.801C-0.339819 13.145 0.526775 14.3426 1.62533 15.3038L4.91785 11.5409ZM1.39238 13.3255H4.80657V8.32547H1.39238V13.3255ZM2.38738 11.4559C2.89433 13.4012 3.83001 15.2083 5.12587 16.7451L8.94827 13.5219C8.13318 12.5552 7.54464 11.4185 7.22577 10.195L2.38738 11.4559ZM7.35751 12.6541C7.16117 12.6287 6.96697 12.5889 6.7765 12.5349L5.4134 17.3455C5.84064 17.4666 6.27624 17.5559 6.71664 17.6129L7.35751 12.6541ZM5.64402 13.3255H10.3466V8.32547H5.64402V13.3255ZM7.93785 10.1562C7.60972 11.337 7.00363 12.4222 6.17026 13.3208L9.83645 16.7207C11.2126 15.2367 12.2135 13.4448 12.7553 11.4948L7.93785 10.1562ZM9.83832 13.3228C9.00004 12.4169 8.38675 11.3264 8.04805 10.1395L3.23998 11.5115C3.794 13.453 4.79718 15.2368 6.16839 16.7187L9.83832 13.3228ZM9.28346 12.5205C9.05642 12.5794 8.82648 12.6266 8.59456 12.6618L9.34471 17.6052C9.74712 17.5441 10.1461 17.4623 10.5401 17.36L9.28346 12.5205ZM10.8905 16.7335C12.1718 15.1953 13.098 13.3934 13.6031 11.4563L8.76493 10.1946C8.44533 11.4202 7.85934 12.5603 7.04872 13.5334L10.8905 16.7335ZM11.184 13.3255H14.6143V8.32547H11.184V13.3255ZM12.3138 9.84694C12.0376 10.4962 11.6184 11.0747 11.0874 11.5393L14.38 15.3022C15.4775 14.3418 16.344 13.146 16.9149 11.804L12.3138 9.84694ZM11.0874 11.5393C10.5565 12.0039 9.92743 12.3426 9.24726 12.5301L10.5763 17.3503C11.9822 16.9627 13.2824 16.2625 14.38 15.3022L11.0874 11.5393ZM13.8185 10.4803C14.125 8.84309 14.125 7.16316 13.8185 5.52591L8.90388 6.44612C9.09657 7.47518 9.09657 8.53107 8.90388 9.56013L13.8185 10.4803ZM11.3612 8.48602H14.8962V3.48602H11.3612V8.48602ZM12.5066 6.72085C12.6333 7.13295 12.6966 7.56195 12.6941 7.99309L17.6941 8.02122C17.6993 7.0825 17.5616 6.14845 17.2857 5.25118L12.5066 6.72085ZM12.6941 8.01435C12.6954 8.45233 12.6326 8.88814 12.5078 9.30797L17.3006 10.7325C17.5642 9.84569 17.6967 8.92511 17.6941 7.99996L12.6941 8.01435ZM14.9042 7.52024H11.3612V12.5202H14.9042V7.52024Z" fill="white" mask="url(#path-1-inside-1_436_1909)"/>
</svg>
