<svg width="28" height="28" viewBox="0 0 28 28" fill="none" xmlns="http://www.w3.org/2000/svg">
<circle cx="14" cy="14" r="13.5" stroke="white"/>
<path d="M14.0002 10.2417C13.2569 10.2417 12.5303 10.4621 11.9122 10.8751C11.2942 11.288 10.8125 11.875 10.528 12.5617C10.2435 13.2485 10.1691 14.0042 10.3141 14.7332C10.4591 15.4623 10.8171 16.132 11.3427 16.6576C11.8683 17.1831 12.538 17.5411 13.267 17.6861C13.9961 17.8311 14.7517 17.7567 15.4385 17.4722C16.1253 17.1878 16.7122 16.7061 17.1252 16.0881C17.5382 15.47 17.7586 14.7433 17.7586 14C17.7598 13.5061 17.6634 13.0169 17.475 12.5604C17.2865 12.1038 17.0097 11.689 16.6605 11.3398C16.3112 10.9905 15.8965 10.7137 15.44 10.5253C14.9834 10.3369 14.4941 10.2405 14.0002 10.2417ZM14.0002 16.4475C13.5161 16.4475 13.043 16.3039 12.6405 16.035C12.238 15.7661 11.9243 15.3839 11.7391 14.9366C11.5538 14.4894 11.5053 13.9973 11.5998 13.5225C11.6942 13.0478 11.9273 12.6116 12.2696 12.2693C12.6119 11.9271 13.048 11.694 13.5227 11.5995C13.9976 11.5051 14.4896 11.5536 14.9369 11.7388C15.3841 11.9241 15.7664 12.2378 16.0352 12.6402C16.3042 13.0427 16.4477 13.5159 16.4477 14C16.4477 14.6491 16.1899 15.2717 15.7309 15.7307C15.2719 16.1896 14.6493 16.4475 14.0002 16.4475ZM18.7944 10.0858C18.7944 10.2671 18.7407 10.4444 18.6399 10.5951C18.5392 10.7459 18.396 10.8634 18.2285 10.9327C18.0611 11.0021 17.8767 11.0203 17.6989 10.9849C17.5211 10.9495 17.3578 10.8622 17.2296 10.734C17.1014 10.6058 17.0141 10.4425 16.9787 10.2647C16.9433 10.0869 16.9614 9.90255 17.0308 9.73505C17.1002 9.56755 17.2177 9.42439 17.3684 9.32366C17.5192 9.22293 17.6964 9.16917 17.8777 9.16917C18.1208 9.16917 18.354 9.26575 18.5259 9.43766C18.6979 9.60956 18.7944 9.84273 18.7944 10.0858ZM21.2786 11.0025C21.3052 9.86293 20.8802 8.75905 20.0961 7.93167C19.2731 7.13755 18.1687 6.70238 17.0252 6.72167C15.8336 6.66667 12.1669 6.66667 10.9752 6.72167C9.83602 6.697 8.73288 7.1218 7.90441 7.90417C7.12033 8.73155 6.69526 9.83543 6.72191 10.975C6.66691 12.1667 6.66691 15.8333 6.72191 17.025C6.69526 18.1646 7.12033 19.2684 7.90441 20.0958C8.73288 20.8782 9.83602 21.303 10.9752 21.2783C12.1852 21.3517 15.8152 21.3517 17.0252 21.2783C18.1648 21.305 19.2687 20.8799 20.0961 20.0958C20.8802 19.2684 21.3052 18.1646 21.2786 17.025C21.3336 15.8333 21.3336 12.1667 21.2786 10.975V11.0025ZM19.7202 18.3358C19.5958 18.6512 19.4079 18.9374 19.1682 19.1771C18.9285 19.4169 18.6422 19.6047 18.3269 19.7292C16.9039 20.0169 15.4491 20.1155 14.0002 20.0225C12.5545 20.1156 11.1027 20.017 9.68275 19.7292C9.36748 19.6047 9.08112 19.4169 8.84145 19.1771C8.60177 18.9374 8.41388 18.6512 8.28941 18.3358C7.90441 17.3642 7.98691 15.0725 7.98691 14.0092C7.98691 12.9458 7.90441 10.645 8.28941 9.6825C8.41037 9.36412 8.59692 9.07473 8.83696 8.8331C9.077 8.59149 9.36516 8.40304 9.68275 8.28C11.1027 7.99215 12.5545 7.89352 14.0002 7.98667C15.4491 7.89367 16.9039 7.99231 18.3269 8.28C18.6422 8.40447 18.9285 8.59236 19.1682 8.83204C19.4079 9.07171 19.5958 9.35807 19.7202 9.67334C20.1052 10.645 20.0136 12.9367 20.0136 14C20.0136 15.0633 20.1052 17.3642 19.7202 18.3267V18.3358Z" fill="white"/>
</svg>
