<svg width="28" height="28" viewBox="0 0 28 28" fill="none" xmlns="http://www.w3.org/2000/svg">
<circle cx="14" cy="14" r="13.5" stroke="white"/>
<path fill-rule="evenodd" clip-rule="evenodd" d="M8.3027 8.76399C9.12081 7.90367 9.40993 7.66237 9.75856 7.55007C9.99982 7.48696 10.2529 7.48345 10.4958 7.53986C10.8156 7.63267 10.9002 7.7032 11.9488 8.74636C12.8701 9.66237 12.9622 9.76167 13.0505 9.94079C13.2194 10.2552 13.2458 10.6266 13.123 10.9617C13.03 11.2169 12.898 11.3858 12.3393 11.9454L11.9749 12.3102C11.8792 12.4073 11.8567 12.5547 11.9191 12.6759C12.7288 14.0548 13.8775 15.2048 15.2566 16.0169C15.4154 16.1018 15.6109 16.0744 15.74 15.9492L16.0905 15.6049C16.3071 15.3832 16.5365 15.1743 16.7775 14.9794C17.1561 14.7473 17.6277 14.7266 18.0251 14.9246C18.2194 15.0174 18.2836 15.0749 19.2337 16.0216C20.2135 16.997 20.2414 17.0276 20.3493 17.2513C20.5522 17.6215 20.5501 18.0699 20.3437 18.4383C20.2386 18.6462 20.1745 18.7213 19.6232 19.2838C19.2904 19.6234 18.9771 19.9334 18.9269 19.9789C18.4721 20.3548 17.8886 20.5392 17.3 20.493C16.2231 20.395 15.1806 20.0627 14.246 19.5195C12.1758 18.4245 10.4134 16.8291 9.11988 14.8791C8.83813 14.471 8.58765 14.0422 8.37057 13.5965C7.78821 12.6 7.48748 11.4646 7.5004 10.3111C7.54486 9.70762 7.83475 9.1486 8.3027 8.76399Z" stroke="white" stroke-linecap="round" stroke-linejoin="round"/>
</svg>
