<svg width="44" height="44" viewBox="0 0 44 44" fill="none" xmlns="http://www.w3.org/2000/svg">
<g clip-path="url(#clip0_358_9410)">
<path fill-rule="evenodd" clip-rule="evenodd" d="M18.9713 25.8316L18.9704 17.5314L26.8959 21.6958L18.9713 25.8316ZM36.3733 16.0931C36.3733 16.0931 36.0864 14.0575 35.2073 13.1611C34.0917 11.984 32.8414 11.9785 32.2685 11.9102C28.1637 11.6111 22.0064 11.6111 22.0064 11.6111H21.9936C21.9936 11.6111 15.8363 11.6111 11.7315 11.9102C11.1577 11.9785 9.90825 11.984 8.79175 13.1611C7.91267 14.0575 7.62667 16.0931 7.62667 16.0931C7.62667 16.0931 7.33333 18.4841 7.33333 20.8742V23.1156C7.33333 25.5066 7.62667 27.8967 7.62667 27.8967C7.62667 27.8967 7.91267 29.9323 8.79175 30.8287C9.90825 32.0057 11.374 31.9688 12.0267 32.0916C14.3733 32.3187 22 32.3889 22 32.3889C22 32.3889 28.1637 32.3796 32.2685 32.0805C32.8414 32.0113 34.0917 32.0057 35.2073 30.8287C36.0864 29.9323 36.3733 27.8967 36.3733 27.8967C36.3733 27.8967 36.6667 25.5066 36.6667 23.1156V20.8742C36.6667 18.4841 36.3733 16.0931 36.3733 16.0931Z" fill="#FF0002"/>
</g>
<defs>
<clipPath id="clip0_358_9410">
<rect width="44" height="44" fill="white"/>
</clipPath>
</defs>
</svg>
