<svg width="28" height="28" viewBox="0 0 28 28" fill="none" xmlns="http://www.w3.org/2000/svg">
<circle cx="14" cy="14" r="13.5" stroke="white"/>
<path d="M19.4224 9.69992L19.5769 8.79385L8.1458 9.86608C8.27982 9.78898 8.41932 9.73137 8.54776 9.70513C8.54827 9.70503 8.54878 9.70493 8.54929 9.70482C8.55811 9.70304 8.56687 9.7014 8.57558 9.69992C8.59207 9.69717 10.304 9.41717 13.9947 9.41667C13.9981 9.41667 14.0014 9.41667 14.0048 9.41667C17.6929 9.41667 19.4064 9.69717 19.4224 9.69992ZM19.4224 9.69992C19.4316 9.70148 19.4409 9.70322 19.4502 9.70512L19.6049 8.79838C19.601 8.79772 19.5921 8.79625 19.5781 8.79404L19.4224 9.69992Z" fill="black" stroke="white" stroke-width="1.875"/>
</svg>
