<svg width="23" height="23" viewBox="0 0 23 23" fill="none" xmlns="http://www.w3.org/2000/svg">
<g clip-path="url(#clip0_419_9558)">
<path d="M11.4899 2.30005C11.3539 2.29936 11.2792 2.39205 11.2583 2.50061L10.6964 4.39627C9.35855 4.54621 8.0907 5.07259 7.04007 5.91427C6.45633 5.59733 5.87282 5.27878 5.28862 4.96368C5.18052 4.90549 5.08576 4.90986 4.99836 4.99795C4.91073 5.08604 4.93557 5.21576 4.98502 5.30914L5.92089 7.03299C5.07492 8.08495 4.54571 9.35587 4.39507 10.6974C3.75705 10.8866 3.11811 11.0743 2.48078 11.2648C2.36348 11.3 2.29977 11.3701 2.3 11.4943C2.30046 11.6185 2.40948 11.6928 2.51068 11.7238L4.39415 12.2818C4.54049 13.6263 5.06698 14.9012 5.91192 15.9572C5.59337 16.5442 5.27298 17.1311 4.95604 17.7186C4.89785 17.8267 4.90222 17.921 4.99054 18.0086C5.0784 18.096 5.20812 18.0716 5.3015 18.0224L7.03501 17.0815C8.08664 17.926 9.35669 18.4542 10.6971 18.6045C10.8861 19.2428 11.0743 19.8819 11.2647 20.5193C11.2999 20.6366 11.37 20.7003 11.4942 20.7001C11.6184 20.6996 11.6927 20.5906 11.7238 20.4894L12.2818 18.6059C13.6293 18.459 14.9067 17.9298 15.9631 17.0805L17.7038 18.0258C17.8301 18.0902 17.9154 18.1015 18.012 18.0058C18.1088 17.9102 18.0962 17.7915 18.0343 17.6999L17.0867 15.9535C17.9298 14.8986 18.4556 13.6256 18.6026 12.2832L20.4962 11.722C20.631 11.6783 20.6993 11.6261 20.7 11.4899C20.7007 11.354 20.608 11.2793 20.4994 11.2583L18.5973 10.6946C18.4471 9.35565 17.9202 8.08677 17.0777 7.03529L18.0184 5.30316C18.0826 5.17666 18.0939 5.09156 17.9982 4.99473C17.9784 4.97342 17.9545 4.95624 17.928 4.9442C17.9016 4.93216 17.8729 4.92549 17.8439 4.92458C17.7896 4.92475 17.7367 4.94161 17.6923 4.97288L15.9567 5.91519C14.9017 5.06801 13.6268 4.53976 12.2818 4.39259L11.7219 2.50383C11.6782 2.36905 11.626 2.30074 11.4899 2.30005ZM11.4896 3.26053V10.3997C11.3037 10.4016 11.1212 10.4506 10.9593 10.5421L9.8141 9.09126L11.0133 4.91837L11.1743 4.35694L11.4896 3.26053ZM12.4522 4.96805C13.5328 5.12432 14.5573 5.54765 15.433 6.1997L13.1797 7.42284L12.4522 4.96805ZM10.5255 4.9738L9.80237 7.41341C9.05694 7.00815 8.31105 6.6045 7.56539 6.19947C8.43577 5.55281 9.45273 5.13172 10.5255 4.9738ZM5.6695 5.66955L9.25796 9.25065L9.25612 9.25594C8.79911 9.39141 8.34256 9.52734 7.88532 9.66258L6.50808 7.18019L6.22679 6.67304L5.6695 5.66955ZM17.3185 5.67369L16.5496 6.44281L16.1649 6.82737L13.7379 9.25456L13.7206 9.2495L13.3172 7.88882L15.8162 6.50537L16.117 6.33931L16.3217 6.22569L17.3185 5.67369ZM16.7946 7.55693C17.4447 8.42919 17.8679 9.44927 18.0262 10.5255L15.5772 9.79966L16.7946 7.55693ZM6.20563 7.55877L7.42233 9.79989C6.60491 10.0414 5.78841 10.2847 4.97122 10.5267C5.13034 9.45037 5.55453 8.43048 6.20563 7.55877ZM13.8858 9.80794L18.0814 11.0131L18.6364 11.1728L19.7393 11.4897H12.6001C12.5982 11.3018 12.5483 11.1174 12.455 10.9543L13.8858 9.80794ZM10.3999 11.4897L10.3994 11.5001C10.3994 11.6836 10.4454 11.8641 10.5331 12.0254L9.085 13.1655L7.64957 12.7542L4.91717 11.9722V11.9718L4.35643 11.8112L3.24944 11.4943L10.3999 11.4897ZM18.0322 12.452C17.8761 13.5316 17.4533 14.5553 16.8022 15.4305L15.5802 13.1788L18.0322 12.452ZM4.97053 12.4527L7.41934 13.1784C7.01109 13.9293 6.60468 14.6807 6.19666 15.4317C5.54693 14.5559 5.12554 13.5321 4.97053 12.4527ZM12.0308 12.4635L13.1716 13.8921L12.7569 15.3401L11.9715 18.0827L11.811 18.6436L11.494 19.7506L11.4894 12.5999C11.6831 12.6004 11.8841 12.5498 12.0308 12.4635ZM15.1135 13.3168L16.4958 15.8146L16.776 16.3204L17.3328 17.3264L16.5568 16.5502L16.172 16.1656L13.7324 13.726L15.1135 13.3168ZM9.25428 13.7382C9.39044 14.1982 9.52729 14.6573 9.66322 15.1173L7.18244 16.4936L6.67483 16.7751L5.66168 17.3375L9.25428 13.7382ZM13.1813 15.5704L15.4399 16.797C14.5623 17.4502 13.5354 17.8738 12.4524 18.0293L13.1813 15.5704ZM9.8003 15.58C10.0418 16.3965 10.2847 17.2123 10.5264 18.0286C9.45104 17.8696 8.432 17.446 7.56079 16.7958L9.8003 15.58Z" fill="black"/>
<path d="M10.58 1.84V0H11.0356L11.9848 1.22866V0H12.42V1.84H11.9501L11.0152 0.64009V1.84H10.58Z" fill="black"/>
<path d="M10.58 22.3897L11.0246 22.3559C11.0513 22.4731 11.1053 22.5592 11.1867 22.6142C11.2689 22.6692 11.3796 22.6968 11.5186 22.6968C11.6658 22.6968 11.7764 22.6725 11.8503 22.6239C11.9254 22.5746 11.963 22.5172 11.963 22.4516C11.963 22.4096 11.947 22.374 11.9152 22.3449C11.8843 22.315 11.8298 22.2891 11.7516 22.2674C11.6981 22.2528 11.5762 22.2269 11.3859 22.1896C11.1409 22.1421 10.969 22.0835 10.8703 22.0139C10.7313 21.9159 10.6619 21.7966 10.6619 21.656C10.6619 21.5656 10.6943 21.4811 10.7592 21.4026C10.8251 21.3233 10.9193 21.263 11.0416 21.2218C11.165 21.1805 11.3138 21.1599 11.4878 21.1599C11.7718 21.1599 11.9853 21.2088 12.1284 21.3067C12.2725 21.4045 12.3481 21.535 12.3551 21.6983L11.8984 21.7142C11.8787 21.6228 11.8366 21.5574 11.7719 21.5178C11.7079 21.4773 11.6116 21.4571 11.483 21.4571C11.3502 21.4571 11.2462 21.4785 11.1711 21.5215C11.1228 21.5489 11.0987 21.5857 11.0987 21.6319C11.0987 21.6739 11.1213 21.7098 11.1665 21.7397C11.2242 21.7778 11.3641 21.8174 11.5865 21.8587C11.8088 21.8999 11.9729 21.9428 12.0787 21.9872C12.1859 22.0308 12.2693 22.091 12.3289 22.1678C12.3896 22.2438 12.42 22.3381 12.42 22.4507C12.42 22.5525 12.384 22.6479 12.3119 22.7368C12.2398 22.8257 12.1379 22.892 12.0062 22.9357C11.8745 22.9785 11.7105 22.9999 11.514 22.9999C11.2279 22.9999 11.0082 22.9482 10.8549 22.8447C10.7015 22.7404 10.6099 22.5887 10.58 22.3897Z" fill="black"/>
<path d="M21.16 12.4201V10.5801H22.954V10.8913H21.6485V11.2993H22.8629V11.6093H21.6485V12.11H23V12.4201H21.16Z" fill="black"/>
<path d="M0.33465 12.4201L0 10.5801H0.2898L0.50117 11.8439L0.75739 10.5801H1.09411L1.33975 11.8653L1.55503 10.5801H1.84L1.4996 12.4201H1.19922L0.92 11.0447L0.6417 12.4201H0.33465Z" fill="black"/>
</g>
<defs>
<clipPath id="clip0_419_9558">
<rect width="23" height="23" fill="white"/>
</clipPath>
</defs>
</svg>
