<svg width="28" height="28" viewBox="0 0 28 28" fill="none" xmlns="http://www.w3.org/2000/svg">
<circle cx="14" cy="14" r="13.5" stroke="white"/>
<path d="M12.322 19.5H9.4329C8.58131 19.5 8.15551 19.5 7.83024 19.3365C7.54413 19.1927 7.31151 18.9632 7.16573 18.681C7 18.3602 7 17.9401 7 17.1V11.4C7 10.5599 7 10.1399 7.16573 9.81902C7.31151 9.53677 7.54413 9.3073 7.83024 9.16349C8.15551 9 8.58131 9 9.4329 9H18.2522C19.1038 9 19.5296 9 19.8548 9.16349C20.1409 9.3073 20.3736 9.53677 20.5193 9.81902C20.6851 10.1399 20.6851 10.5599 20.6851 11.4V12.75M20.3861 11.4467L16.5415 13.9751C15.566 14.6166 15.0783 14.9374 14.5511 15.062C14.0852 15.1721 13.5996 15.1721 13.1337 15.062C12.6065 14.9374 12.1188 14.6166 11.1433 13.9751L7.11211 11.324M15.3631 21L16.9027 20.6962C17.0369 20.6698 17.104 20.6565 17.1666 20.6323C17.2221 20.6108 17.275 20.5829 17.3239 20.5493C17.3791 20.5113 17.4274 20.4636 17.5243 20.3681L20.6851 17.25C21.105 16.8358 21.105 16.1642 20.6851 15.75C20.2652 15.3358 19.5844 15.3358 19.1645 15.75L16.0037 18.8681C15.9069 18.9636 15.8585 19.0113 15.82 19.0657C15.7859 19.114 15.7576 19.1661 15.7359 19.2209C15.7113 19.2826 15.6979 19.3489 15.671 19.4813L15.3631 21Z" stroke="white" stroke-linecap="round" stroke-linejoin="round"/>
</svg>
