<svg width="28" height="28" viewBox="0 0 28 28" fill="none" xmlns="http://www.w3.org/2000/svg">
<circle cx="14" cy="14" r="13.5" stroke="white"/>
<path fill-rule="evenodd" clip-rule="evenodd" d="M17.0626 13.1868L16.8211 14.9495H13.9207V21.1187H12.1581V14.9495H9.51413V13.1868H12.1581V11.5714C12.1581 9.3302 13.5347 7.88131 15.6666 7.88131C16.5796 7.88131 17.149 7.92979 17.4777 7.97385L17.4521 9.64307L16.0967 9.64571C16.0597 9.64219 15.1766 9.57345 14.5394 10.1586C14.1287 10.535 13.9207 11.0761 13.9207 11.7653V13.1868H17.0626V13.1868ZM15.1308 10.8117C15.478 10.4883 16.0191 10.5235 16.0588 10.5253L18.3202 10.5244L18.3687 7.26263L18.0285 7.17891C17.81 7.12516 17.141 7 15.6666 7C13.0412 7 11.2768 8.83755 11.2768 11.5714V12.3055H8.63281V15.8308H11.2768V22H14.802V15.8308H17.5887L18.0726 12.3055H14.802V11.7653C14.802 11.3361 14.9131 11.0153 15.1308 10.8117Z" fill="white"/>
</svg>
