<svg width="60" height="60" viewBox="0 0 60 60" fill="none" xmlns="http://www.w3.org/2000/svg">
<g clip-path="url(#clip0_797_2988)">
<path fill-rule="evenodd" clip-rule="evenodd" d="M0 30C0 22.0435 3.1607 14.4129 8.7868 8.7868C14.4129 3.1607 22.0435 0 30 0C37.9565 0 45.5871 3.1607 51.2132 8.7868C56.8393 14.4129 60 22.0435 60 30C60 37.9565 56.8393 45.5871 51.2132 51.2132C45.5871 56.8393 37.9565 60 30 60C22.0435 60 14.4129 56.8393 8.7868 51.2132C3.1607 45.5871 0 37.9565 0 30Z" fill="#D5080D"/>
<path fill-rule="evenodd" clip-rule="evenodd" d="M55.7143 30.0001C55.7143 26.6232 55.0492 23.2794 53.757 20.1596C52.4647 17.0398 50.5706 14.2051 48.1828 11.8173C45.795 9.42951 42.9603 7.53541 39.8405 6.24315C36.7207 4.95089 33.3769 4.28577 30.0001 4.28577C26.6232 4.28577 23.2794 4.95089 20.1596 6.24315C17.0398 7.53541 14.2051 9.42951 11.8173 11.8173C9.42951 14.2051 7.53541 17.0398 6.24315 20.1596C4.95089 23.2794 4.28577 26.6232 4.28577 30.0001C4.28577 36.8199 6.99494 43.3604 11.8173 48.1828C16.6397 53.0052 23.1802 55.7143 30.0001 55.7143C36.8199 55.7143 43.3604 53.0052 48.1828 48.1828C53.0052 43.3604 55.7143 36.8199 55.7143 30.0001Z" fill="#D5080D"/>
<path fill-rule="evenodd" clip-rule="evenodd" d="M30.0001 25.5815L23.9958 19.5772C23.879 19.461 23.7403 19.3693 23.5878 19.3072C23.4352 19.2451 23.2719 19.2139 23.1072 19.2155C22.9425 19.2171 22.7798 19.2514 22.6285 19.3165C22.4771 19.3815 22.3403 19.4759 22.2258 19.5943L19.5943 22.2258C19.3594 22.4593 19.2258 22.776 19.2226 23.1073C19.2194 23.4385 19.3468 23.7577 19.5772 23.9958L25.5772 30.0001L19.5772 36.0043C19.461 36.1211 19.3693 36.2598 19.3072 36.4123C19.2451 36.5649 19.2139 36.7282 19.2155 36.8929C19.2171 37.0576 19.2514 37.2204 19.3165 37.3717C19.3815 37.523 19.4759 37.6599 19.5943 37.7743L22.2258 40.4058C22.7101 40.8943 23.5115 40.9072 23.9958 40.4229L30.0001 34.4229L36.0043 40.4229C36.1211 40.5391 36.2598 40.6309 36.4123 40.693C36.5649 40.755 36.7282 40.7862 36.8929 40.7846C37.0576 40.783 37.2204 40.7487 37.3717 40.6837C37.523 40.6186 37.6599 40.5242 37.7743 40.4058L40.4058 37.7743C40.6407 37.5408 40.7743 37.2241 40.7775 36.8929C40.7807 36.5616 40.6533 36.2424 40.4229 36.0043L34.4229 30.0001L40.4229 23.9958C40.5391 23.879 40.6309 23.7403 40.693 23.5878C40.755 23.4352 40.7862 23.2719 40.7846 23.1072C40.783 22.9425 40.7487 22.7798 40.6837 22.6285C40.6186 22.4771 40.5242 22.3403 40.4058 22.2258L37.7743 19.5943C37.5408 19.3594 37.2241 19.2258 36.8929 19.2226C36.5616 19.2194 36.2424 19.3468 36.0043 19.5772L30.0001 25.5815Z" fill="white"/>
</g>
<defs>
<clipPath id="clip0_797_2988">
<rect width="60" height="60" fill="white"/>
</clipPath>
</defs>
</svg>
