<svg width="32" height="32" viewBox="0 0 28 28" fill="none" xmlns="http://www.w3.org/2000/svg">
<circle cx="14" cy="14" r="13.5" stroke="black"/>
<path d="M14 10.2417C13.2567 10.2417 12.53 10.4621 11.912 10.8751C11.2939 11.288 10.8122 11.875 10.5278 12.5617C10.2433 13.2485 10.1689 14.0042 10.3139 14.7332C10.4589 15.4623 10.8169 16.132 11.3425 16.6576C11.8681 17.1831 12.5377 17.5411 13.2668 17.6861C13.9959 17.8311 14.7515 17.7567 15.4382 17.4722C16.125 17.1878 16.712 16.7061 17.1249 16.0881C17.538 15.47 17.7583 14.7433 17.7583 14C17.7595 13.5061 17.6632 13.0169 17.4747 12.5604C17.2862 12.1038 17.0095 11.689 16.6603 11.3398C16.311 10.9905 15.8962 10.7137 15.4397 10.5253C14.9831 10.3369 14.4939 10.2405 14 10.2417ZM14 16.4475C13.5159 16.4475 13.0427 16.3039 12.6402 16.035C12.2378 15.7661 11.9241 15.3839 11.7388 14.9366C11.5536 14.4894 11.5051 13.9973 11.5995 13.5225C11.694 13.0478 11.9271 12.6116 12.2693 12.2693C12.6116 11.9271 13.0478 11.694 13.5225 11.5995C13.9973 11.5051 14.4894 11.5536 14.9366 11.7388C15.3839 11.9241 15.7661 12.2378 16.035 12.6402C16.3039 13.0427 16.4475 13.5159 16.4475 14C16.4475 14.6491 16.1896 15.2717 15.7307 15.7307C15.2717 16.1896 14.6491 16.4475 14 16.4475ZM18.7942 10.0858C18.7942 10.2671 18.7404 10.4444 18.6397 10.5951C18.539 10.7459 18.3958 10.8634 18.2283 10.9327C18.0608 11.0021 17.8765 11.0203 17.6987 10.9849C17.5208 10.9495 17.3576 10.8622 17.2293 10.734C17.1012 10.6058 17.0138 10.4425 16.9784 10.2647C16.943 10.0869 16.9612 9.90255 17.0306 9.73505C17.1 9.56755 17.2175 9.42439 17.3682 9.32366C17.519 9.22293 17.6962 9.16917 17.8775 9.16917C18.1206 9.16917 18.3538 9.26575 18.5257 9.43766C18.6976 9.60956 18.7942 9.84273 18.7942 10.0858ZM21.2783 11.0025C21.305 9.86293 20.8799 8.75905 20.0958 7.93167C19.2728 7.13755 18.1684 6.70238 17.025 6.72167C15.8333 6.66667 12.1667 6.66667 10.975 6.72167C9.83578 6.697 8.73263 7.1218 7.90417 7.90417C7.12009 8.73155 6.69501 9.83543 6.72167 10.975C6.66667 12.1667 6.66667 15.8333 6.72167 17.025C6.69501 18.1646 7.12009 19.2684 7.90417 20.0958C8.73263 20.8782 9.83578 21.303 10.975 21.2783C12.185 21.3517 15.815 21.3517 17.025 21.2783C18.1646 21.305 19.2684 20.8799 20.0958 20.0958C20.8799 19.2684 21.305 18.1646 21.2783 17.025C21.3333 15.8333 21.3333 12.1667 21.2783 10.975V11.0025ZM19.72 18.3358C19.5955 18.6512 19.4077 18.9374 19.168 19.1771C18.9283 19.4169 18.642 19.6047 18.3267 19.7292C16.9036 20.0169 15.4489 20.1155 14 20.0225C12.5542 20.1156 11.1024 20.017 9.6825 19.7292C9.36723 19.6047 9.08088 19.4169 8.84121 19.1771C8.60152 18.9374 8.41363 18.6512 8.28917 18.3358C7.90417 17.3642 7.98667 15.0725 7.98667 14.0092C7.98667 12.9458 7.90417 10.645 8.28917 9.6825C8.41012 9.36412 8.59668 9.07473 8.83671 8.8331C9.07675 8.59149 9.36492 8.40304 9.6825 8.28C11.1024 7.99215 12.5542 7.89352 14 7.98667C15.4489 7.89367 16.9036 7.99231 18.3267 8.28C18.642 8.40447 18.9283 8.59236 19.168 8.83204C19.4077 9.07171 19.5955 9.35807 19.72 9.67334C20.105 10.645 20.0133 12.9367 20.0133 14C20.0133 15.0633 20.105 17.3642 19.72 18.3267V18.3358Z" fill="black"/>
</svg>
