<svg width="18" height="17" viewBox="0 0 18 17" fill="none" xmlns="http://www.w3.org/2000/svg">
<path d="M8.05766 12.01L4.87496 15.9348V9.34685V9.22457L4.77843 9.1495L0.716577 5.99066L17.0459 0.547363L12.9643 15.5161L8.40532 11.9701L8.21196 11.8197L8.05766 12.01ZM2.72653 6.11156L2.28341 6.25927L2.65209 6.54605L5.25459 8.57043L5.40079 8.68416L5.55217 8.57741L13.329 3.09303L13.1059 2.65156L2.72653 6.11156ZM5.73079 9.36948L5.62496 9.44418V9.57372V13.1093V13.8155L6.06927 13.2667L12.748 5.01665L12.4095 4.65511L5.73079 9.36948ZM8.83999 11.0358L8.67968 11.234L8.88084 11.3904L12.2402 14.0036L12.5362 14.2338L12.6349 13.872L15.4174 3.66888L14.9819 3.44584L8.83999 11.0358Z" fill="#111918" stroke="black" stroke-width="0.5"/>
</svg>
