<svg width="53" height="53" viewBox="0 0 53 53" fill="none" xmlns="http://www.w3.org/2000/svg">
<path d="M26.7161 0.294312C33.678 0.294312 40.3548 3.05993 45.2776 7.98276C50.2004 12.9056 52.9661 19.5824 52.9661 26.5443C52.9661 33.5062 50.2004 40.183 45.2776 45.1059C40.3548 50.0287 33.678 52.7943 26.7161 52.7943C19.7541 52.7943 13.0773 50.0287 8.15451 45.1059C3.23168 40.183 0.466064 33.5062 0.466064 26.5443C0.466064 19.5824 3.23168 12.9056 8.15451 7.98276C13.0773 3.05993 19.7541 0.294312 26.7161 0.294312ZM23.4461 31.7231L17.6148 25.8881C17.4058 25.679 17.1576 25.5132 16.8845 25.4001C16.6113 25.2869 16.3186 25.2287 16.0229 25.2287C15.7273 25.2287 15.4346 25.2869 15.1614 25.4001C14.8883 25.5132 14.6401 25.679 14.4311 25.8881C14.0089 26.3103 13.7717 26.8829 13.7717 27.4799C13.7717 28.077 14.0089 28.6496 14.4311 29.0718L21.8561 36.4968C22.0645 36.7069 22.3125 36.8737 22.5857 36.9875C22.8589 37.1013 23.152 37.1598 23.4479 37.1598C23.7439 37.1598 24.0369 37.1013 24.3102 36.9875C24.5834 36.8737 24.8314 36.7069 25.0398 36.4968L40.4148 21.1181C40.6267 20.9099 40.7952 20.6618 40.9107 20.3882C41.0262 20.1145 41.0863 19.8207 41.0877 19.5237C41.0891 19.2267 41.0317 18.9324 40.9187 18.6577C40.8058 18.383 40.6396 18.1334 40.4297 17.9232C40.2198 17.7131 39.9704 17.5466 39.6958 17.4333C39.4212 17.32 39.1269 17.2623 38.8299 17.2633C38.5329 17.2643 38.2391 17.3241 37.9653 17.4393C37.6915 17.5545 37.4432 17.7227 37.2348 17.9343L23.4461 31.7231Z" fill="#589E52"/>
</svg>
