<svg width="21" height="19" viewBox="0 0 21 19" fill="none" xmlns="http://www.w3.org/2000/svg">
<path d="M0.147907 8.81875C0.0614561 8.58661 0.0614561 8.3311 0.147907 8.09896C1.9302 3.25 5.99374 0.125 10.5 0.125C15.0062 0.125 19.0698 3.25 20.8521 8.09896C20.9385 8.33074 20.9385 8.58593 20.8521 8.81771C20.552 9.63741 20.1753 10.427 19.7271 11.176C19.6584 11.2966 19.5664 11.4022 19.4563 11.4868C19.3463 11.5713 19.2204 11.6329 19.0862 11.6681C18.952 11.7033 18.8121 11.7114 18.6748 11.6918C18.5374 11.6722 18.4054 11.6253 18.2863 11.554C18.1673 11.4827 18.0638 11.3883 17.9818 11.2764C17.8997 11.1645 17.8409 11.0373 17.8087 10.9023C17.7765 10.7674 17.7716 10.6274 17.7942 10.4905C17.8169 10.3536 17.8666 10.2226 17.9406 10.1052C18.2557 9.57841 18.5291 9.02777 18.7583 8.45833C17.2198 4.64896 14.0135 2.20833 10.5 2.20833C6.98645 2.20833 3.7802 4.64896 2.24166 8.45833C2.76089 9.89869 3.6136 11.1957 4.7301 12.2434C5.8466 13.2911 7.19519 14.0598 8.66562 14.4865C8.93239 14.5539 9.16165 14.7241 9.30335 14.96C9.44504 15.1958 9.48766 15.4782 9.4219 15.7453C9.35614 16.0125 9.18733 16.2428 8.95235 16.386C8.71736 16.5291 8.43528 16.5735 8.1677 16.5094C6.30485 15.9792 4.60007 15.0012 3.20215 13.6606C1.80422 12.3201 0.755636 10.6578 0.147907 8.81875ZM14.6667 8.45833C14.6665 7.76878 14.4952 7.09006 14.1681 6.48302C13.841 5.87597 13.3684 5.35959 12.7926 4.98018C12.2169 4.60077 11.5559 4.37018 10.8691 4.3091C10.1822 4.24802 9.49098 4.35835 8.85728 4.63021C9.03637 4.76453 9.18451 4.93576 9.29166 5.13231C9.39882 5.32886 9.46248 5.54615 9.47835 5.76944C9.49422 5.99274 9.46192 6.21685 9.38364 6.42658C9.30536 6.63631 9.18293 6.82677 9.02464 6.98506C8.86634 7.14336 8.67588 7.26579 8.46615 7.34407C8.25642 7.42235 8.03232 7.45465 7.80902 7.43878C7.58572 7.42291 7.36844 7.35924 7.17188 7.25209C6.97533 7.14493 6.8041 6.9968 6.66978 6.81771C6.42642 7.38597 6.31255 8.00127 6.33643 8.61899C6.36032 9.23671 6.52135 9.84138 6.80786 10.3892C7.09437 10.9369 7.49918 11.4141 7.99294 11.7861C8.4867 12.158 9.05704 12.4154 9.66261 12.5397C10.2682 12.6639 10.8938 12.6518 11.4941 12.5043C12.0945 12.3569 12.6544 12.0776 13.1335 11.6869C13.6125 11.2962 13.9987 10.8038 14.2638 10.2454C14.529 9.68694 14.6666 9.07652 14.6667 8.45833ZM16.2292 18.875C16.5054 18.875 16.7704 18.7653 16.9657 18.5699C17.1611 18.3746 17.2708 18.1096 17.2708 17.8333V16.2708H18.8333C19.1096 16.2708 19.3745 16.1611 19.5699 15.9657C19.7652 15.7704 19.875 15.5054 19.875 15.2292C19.875 14.9529 19.7652 14.6879 19.5699 14.4926C19.3745 14.2972 19.1096 14.1875 18.8333 14.1875H17.2708V12.625C17.2708 12.3487 17.1611 12.0838 16.9657 11.8884C16.7704 11.6931 16.5054 11.5833 16.2292 11.5833C15.9529 11.5833 15.6879 11.6931 15.4926 11.8884C15.2972 12.0838 15.1875 12.3487 15.1875 12.625V14.1875H13.625C13.3487 14.1875 13.0838 14.2972 12.8884 14.4926C12.6931 14.6879 12.5833 14.9529 12.5833 15.2292C12.5833 15.5054 12.6931 15.7704 12.8884 15.9657C13.0838 16.1611 13.3487 16.2708 13.625 16.2708H15.1875V17.8333C15.1875 18.1096 15.2972 18.3746 15.4926 18.5699C15.6879 18.7653 15.9529 18.875 16.2292 18.875Z" fill="black"/>
</svg>
