<svg width="30" height="31" viewBox="0 0 30 31" fill="none" xmlns="http://www.w3.org/2000/svg">
<g clip-path="url(#clip0_358_9401)">
<path d="M25.5814 4.44966C22.7737 1.58193 19.0402 0.00174967 15.0624 0C6.86556 0 0.194993 6.80617 0.191711 15.1719C0.190756 17.8461 0.875335 20.4564 2.17653 22.7574L0.066864 30.6196L7.94998 28.5099C10.1219 29.7189 12.5674 30.3559 15.056 30.3569H15.0623H15.0624C23.2579 30.3569 29.9295 23.5496 29.9329 15.1842C29.9343 11.1298 28.3888 7.3176 25.5814 4.44966ZM15.0624 27.7943H15.0576C12.8393 27.7931 10.6641 27.1853 8.76675 26.0362L8.31521 25.763L3.63721 27.0148L4.88617 22.3613L4.59198 21.8842C3.35465 19.8762 2.70144 17.5557 2.70237 15.1729C2.70509 8.21955 8.24941 2.56269 15.0671 2.56269C18.3685 2.56409 21.4715 3.87755 23.8052 6.26112C26.1388 8.64468 27.423 11.8133 27.422 15.1831C27.4192 22.1367 21.8746 27.7943 15.0624 27.7943Z" fill="#E0E0E0"/>
<path d="M0.749496 29.7474L2.7628 22.2443C1.52072 20.0484 0.867536 17.5571 0.868319 15.0056C0.871577 7.02218 7.23749 0.5271 15.0592 0.5271C18.8555 0.528849 22.4185 2.03677 25.0974 4.77358C27.7769 7.51036 29.2516 11.1482 29.2501 15.017C29.2468 23.0006 22.8805 29.4963 15.0598 29.4963C15.0592 29.4963 15.0602 29.4963 15.0598 29.4963H15.0535C12.6785 29.4955 10.345 28.887 8.27237 27.7341L0.749496 29.7474Z" fill="url(#paint0_linear_358_9401)"/>
<path fill-rule="evenodd" clip-rule="evenodd" d="M11.3877 8.73075C11.1126 8.10644 10.8229 8.09395 10.5612 8.08302C10.3471 8.07365 10.102 8.07423 9.85729 8.07423C9.61239 8.07423 9.21444 8.16816 8.87791 8.54329C8.54118 8.91842 7.59221 9.82527 7.59221 11.6696C7.59221 13.5142 8.90852 15.2965 9.09199 15.5468C9.27566 15.7968 11.633 19.7027 15.3663 21.2054C18.469 22.4541 19.1004 22.2057 19.7738 22.1433C20.4473 22.0808 21.9469 21.2366 22.253 20.3612C22.5591 19.4859 22.5591 18.7357 22.4673 18.5789C22.3754 18.4227 22.1305 18.3289 21.7632 18.1415C21.3958 17.954 19.5901 17.0469 19.2534 16.922C18.9167 16.797 18.6718 16.7345 18.4269 17.1098C18.182 17.4848 17.4785 18.3289 17.2642 18.5789C17.0499 18.8294 16.8356 18.8606 16.4683 18.6732C16.101 18.4851 14.918 18.0897 13.5146 16.8126C12.4228 15.819 11.6856 14.5919 11.4713 14.2166C11.257 13.8417 11.4483 13.6386 11.6326 13.4517C11.7975 13.2837 11.9999 13.0141 12.1836 12.7952C12.3669 12.5763 12.4281 12.42 12.5505 12.1701C12.673 11.9197 12.6118 11.7008 12.5199 11.5134C12.4281 11.3259 11.7143 9.47201 11.3877 8.73075Z" fill="white"/>
<path d="M25.4599 4.40128C22.6844 1.56647 18.9938 0.00446021 15.0617 0.00268555C6.95893 0.00268555 0.364941 6.73072 0.361684 15.0004C0.360729 17.6439 1.03745 20.2243 2.32371 22.4989L0.238281 30.2708L8.03091 28.1853C10.1779 29.3803 12.5953 30.0101 15.0554 30.0111H15.0616H15.0617C23.1631 30.0111 29.758 23.2819 29.7615 15.0125C29.7628 11.0047 28.2351 7.2363 25.4599 4.40128ZM15.0617 27.478H15.0569C12.8641 27.4768 10.7139 26.876 8.8383 25.74L8.39193 25.47L3.76763 26.7074L5.00224 22.1073L4.71143 21.6357C3.4883 19.6508 2.84259 17.3568 2.84355 15.0014C2.84621 8.12793 8.32689 2.53601 15.0663 2.53601C18.3299 2.53738 21.3972 3.83576 23.7042 6.19197C26.011 8.54818 27.2804 11.6804 27.2795 15.0116C27.2766 21.8853 21.7957 27.478 15.0617 27.478Z" fill="white"/>
</g>
<defs>
<linearGradient id="paint0_linear_358_9401" x1="14.9998" y1="29.7474" x2="14.9998" y2="0.527148" gradientUnits="userSpaceOnUse">
<stop stop-color="#20B038"/>
<stop offset="1" stop-color="#60D66A"/>
</linearGradient>
<clipPath id="clip0_358_9401">
<rect width="30" height="30.6196" fill="white"/>
</clipPath>
</defs>
</svg>
