<svg width="30" height="22" viewBox="0 0 30 22" fill="none" xmlns="http://www.w3.org/2000/svg">
<path fill-rule="evenodd" clip-rule="evenodd" d="M11.9713 14.8316L11.9704 6.53137L19.8959 10.6958L11.9713 14.8316ZM29.3733 5.09307C29.3733 5.09307 29.0864 3.05748 28.2073 2.16109C27.0917 0.984045 25.8414 0.978506 25.2685 0.910191C21.1637 0.611084 15.0064 0.611084 15.0064 0.611084H14.9936C14.9936 0.611084 8.83633 0.611084 4.7315 0.910191C4.15767 0.978506 2.90825 0.984045 1.79175 2.16109C0.912665 3.05748 0.626665 5.09307 0.626665 5.09307C0.626665 5.09307 0.333332 7.48408 0.333332 9.87417V12.1156C0.333332 14.5066 0.626665 16.8967 0.626665 16.8967C0.626665 16.8967 0.912665 18.9323 1.79175 19.8287C2.90825 21.0057 4.374 20.9688 5.02667 21.0916C7.37333 21.3187 15 21.3889 15 21.3889C15 21.3889 21.1637 21.3796 25.2685 21.0805C25.8414 21.0113 27.0917 21.0057 28.2073 19.8287C29.0864 18.9323 29.3733 16.8967 29.3733 16.8967C29.3733 16.8967 29.6667 14.5066 29.6667 12.1156V9.87417C29.6667 7.48408 29.3733 5.09307 29.3733 5.09307Z" fill="#FF0002"/>
</svg>
