<svg width="28" height="28" viewBox="0 0 28 28" fill="none" xmlns="http://www.w3.org/2000/svg">
<circle cx="14" cy="14" r="13.5" stroke="white"/>
<path d="M21.1671 10.3978C21.0817 10.0802 20.9143 9.7907 20.6818 9.55817C20.4493 9.32564 20.1597 9.15828 19.8422 9.07284C18.9742 8.73774 10.5675 8.57357 8.12876 9.08244C7.81117 9.16789 7.52162 9.33528 7.28907 9.56783C7.05653 9.80039 6.88916 10.09 6.80373 10.4075C6.41201 12.1262 6.38227 15.8418 6.81333 17.5988C6.89878 17.9164 7.06616 18.2059 7.2987 18.4384C7.53124 18.671 7.82079 18.8383 8.13836 18.9238C9.85694 19.3193 18.0276 19.375 19.8518 18.9238C20.1693 18.8383 20.4589 18.671 20.6914 18.4384C20.9239 18.2059 21.0913 17.9164 21.1767 17.5988C21.5944 15.7264 21.6241 12.2413 21.1671 10.3978Z" stroke="white" stroke-linecap="round" stroke-linejoin="round"/>
<path d="M16.4626 13.9982L12.5453 11.7515V16.2448L16.4626 13.9982Z" stroke="white" stroke-linecap="round" stroke-linejoin="round"/>
</svg>
