<svg width="223" height="51" viewBox="0 0 223 51" fill="none" xmlns="http://www.w3.org/2000/svg">
<path d="M36.9874 49.948L22.4547 49.6766C17.7492 49.5822 13.0321 49.771 8.41908 48.7916C1.40128 47.3284 0.904133 40.1538 0.383868 34.1357C-0.332942 25.6749 -0.0554671 17.0607 1.29722 8.67073C2.06028 3.96243 5.06626 1.15397 9.71396 0.847168C25.4028 -0.262055 41.1958 -0.132253 56.85 0.386959C58.5033 0.43416 60.1681 0.693765 61.7983 0.988771C69.8451 2.4284 70.0416 10.5588 70.5619 17.4029C71.0821 24.3179 70.8625 31.2682 69.8682 38.136C69.0704 43.8237 67.5443 48.591 61.1046 49.0512C53.0347 49.653 45.1498 50.1368 37.0568 49.9834C37.0568 49.948 37.0105 49.948 36.9874 49.948ZM28.4435 35.5517C34.5248 31.988 40.4905 28.4834 46.5372 24.9433C40.4443 21.3796 34.4901 17.8749 28.4435 14.3349V35.5517Z" fill="#FF0000"/>
<path d="M187.506 43.4812C187.228 44.6376 186.986 45.5463 186.743 46.5139H181.055V1.73193H187.691V18.2523C188.038 17.8039 188.211 17.6151 188.361 17.4145C189.494 15.8214 190.963 14.783 192.859 14.3818C195.876 13.78 198.455 15.137 199.368 18.0989C199.958 19.9397 200.339 21.9104 200.385 23.8338C200.478 28.7781 200.408 33.7106 200.235 38.6549C200.166 40.1653 199.715 41.7112 199.148 43.1272C197.287 47.8001 191.206 48.5081 188.188 44.4606C188.003 44.2128 187.83 43.9414 187.506 43.4812ZM187.83 31.1618V39.3511C187.83 40.6846 188.523 41.4988 189.83 41.8056C191.113 42.1124 192.154 41.605 192.674 40.3895C192.894 39.8821 193.113 39.3511 193.125 38.8201C193.252 33.8168 193.368 28.8135 193.402 23.7984C193.402 22.8662 193.183 21.8986 192.905 20.9899C192.385 19.3497 190.951 18.8659 189.541 19.8217C188.477 20.5533 187.83 21.5918 187.83 22.9724V31.1618ZM169.794 15.019H176.742V46.5375H171.32C171.123 45.3456 170.927 44.1184 170.696 42.6788C170.326 43.2334 170.106 43.5874 169.875 43.9414C168.071 46.5965 165.516 47.5051 162.498 47.0213C159.92 46.5965 158.371 44.5668 158.024 41.2392C157.92 40.2479 157.874 39.2449 157.874 38.2537C157.851 30.8785 157.874 23.4798 157.874 16.1046V14.9954H164.903V16.2816C164.903 23.409 164.88 30.5245 164.926 37.6519C164.926 38.6667 165.03 39.7169 165.204 40.7318C165.4 41.7702 166.14 42.1478 167.135 42.077C168.742 41.9472 169.852 40.7318 169.852 39.1033V16.4114C169.794 15.9512 169.794 15.5264 169.794 15.019ZM121.952 14.9954H128.936V16.3288C128.936 23.4208 128.912 30.5009 128.959 37.5693C128.959 38.5841 129.051 39.6343 129.259 40.6255C129.525 41.7938 130.196 42.1714 131.34 42.018C132.924 41.7938 133.884 40.6727 133.895 39.0325V16.4586V15.0426H140.844V46.5375H135.445C135.248 45.3692 135.052 44.1656 134.797 42.6434C134.45 43.1744 134.254 43.4812 134.057 43.7998C132.254 46.5021 129.722 47.4933 126.635 47.0095C124.161 46.6319 122.646 44.7674 122.184 41.7112C122.057 40.7554 121.964 39.8113 121.964 38.8555C121.941 31.1971 121.941 23.5034 121.941 15.845L121.952 14.9954ZM118.368 31.8226C118.345 32.8846 118.276 33.9466 118.218 35.0086C117.952 38.1947 117.825 42.7142 115.305 45.0388C113.698 46.5021 111.663 47.0331 109.559 47.1039C108.622 47.1275 107.674 47.1275 106.738 46.9977C102.31 46.3133 100.252 44.319 99.5117 39.3511C98.6677 33.6162 98.5984 27.7869 99.6042 22.052C100.645 16.1164 104.229 14.016 109.801 14.4054C115.004 14.783 117.328 18.2641 117.941 23.2202C118.276 26.064 118.438 28.9433 118.368 31.8226ZM111.293 30.7369C111.293 28.7191 111.339 26.6895 111.27 24.6716C111.223 23.5034 111.073 22.3234 110.83 21.1669C110.553 19.8335 109.72 19.1963 108.68 19.2199C107.663 19.2435 106.946 19.8807 106.576 21.1197C106.449 21.58 106.31 22.052 106.31 22.5122C106.31 25.6746 106.287 28.8489 106.264 32.0114C106.24 34.9614 105.871 38.0531 106.784 40.8734C107.061 41.7348 107.778 42.2068 108.715 42.2068C109.628 42.2068 110.229 41.7466 110.564 40.9206C110.83 40.2833 111.062 39.5871 111.062 38.9027C111.143 36.1887 111.293 33.4628 111.293 30.7369ZM89.3145 24.8014C89.9273 21.7452 90.5053 18.7597 91.1412 15.7624C91.939 11.9509 92.8292 8.13947 93.6154 4.31619C93.8119 3.38397 94.1819 3.15976 95.049 3.18336C96.9104 3.25417 98.8065 3.20696 100.795 3.20696C100.148 5.63782 99.5117 7.95066 98.8874 10.2281C96.9104 17.3791 94.9334 24.5536 92.9795 31.7282C92.8292 32.2828 92.7598 32.8846 92.7598 33.4746C92.7367 37.3923 92.7598 41.2982 92.7598 45.2158V46.4903H85.9733C85.9501 46.1363 85.9039 45.7823 85.9039 45.4282C85.9039 43.2098 85.7305 40.9796 85.927 38.7847C86.4242 33.51 84.7824 28.6601 83.4529 23.7512C81.6955 17.2611 79.9151 10.7473 78.1577 4.25719C78.0652 3.95038 78.0305 3.61997 77.938 3.24237H84.8634C86.3201 10.4051 87.7884 17.5679 89.3145 24.8014ZM222.098 33.0262H210.398C210.525 35.4216 210.571 37.6991 210.814 39.9529C210.987 41.5224 211.831 42.195 213.161 42.2068C214.548 42.2304 215.357 41.5224 215.681 39.9647C215.785 39.4573 215.855 38.9499 215.901 38.4307C215.947 37.9705 215.97 37.4749 216.005 36.8141C217.982 36.9203 219.913 37.0383 221.82 37.1209C222.93 40.4839 220.93 44.8028 217.566 46.1363C214.918 47.1983 212.201 47.1983 209.496 46.3841C207.496 45.7823 206.004 44.4842 205.334 42.49C204.709 40.6255 204.12 38.6785 203.993 36.7315C203.646 31.9288 203.519 27.0789 204.235 22.2644C204.363 21.4619 204.582 20.6949 204.825 19.9161C205.796 16.7064 207.912 14.7358 211.184 14.4054C212.964 14.2284 214.802 14.2992 216.56 14.606C219.404 15.1134 220.919 17.2021 221.577 19.9397C221.878 21.2259 222.098 22.5476 222.144 23.8574C222.156 26.8665 222.098 29.8519 222.098 33.0262ZM215.45 28.8843C215.45 26.5125 215.473 24.2822 215.427 22.0402C215.427 21.5091 215.23 20.9545 215.034 20.4471C214.641 19.4559 213.82 19.1845 212.837 19.1845C211.854 19.1845 211.23 19.6919 210.987 20.6005C210.247 23.3264 210.49 26.1112 210.513 28.9079C212.282 28.8843 213.889 28.8843 215.45 28.8843Z" fill="#282828"/>
<path d="M146.208 8.98899H139.329V3.30127H159.862V8.95359H153.03V46.4902H146.22L146.208 8.98899Z" fill="#282828"/>
</svg>
