<svg width="30" height="22" viewBox="0 0 30 22" fill="none" xmlns="http://www.w3.org/2000/svg">
<path fill-rule="evenodd" clip-rule="evenodd" d="M11.9713 14.8318L11.9704 6.53161L19.8959 10.696L11.9713 14.8318ZM29.3733 5.09332C29.3733 5.09332 29.0864 3.05773 28.2073 2.16133C27.0917 0.984289 25.8414 0.97875 25.2685 0.910436C21.1636 0.611329 15.0064 0.611328 15.0064 0.611328H14.9936C14.9936 0.611328 8.83631 0.611329 4.73148 0.910436C4.15765 0.97875 2.90823 0.984289 1.79173 2.16133C0.912646 3.05773 0.626646 5.09332 0.626646 5.09332C0.626646 5.09332 0.333313 7.48432 0.333313 9.87441V12.1159C0.333313 14.5069 0.626646 16.897 0.626646 16.897C0.626646 16.897 0.912646 18.9326 1.79173 19.8289C2.90823 21.006 4.37398 20.9691 5.02665 21.0918C7.37331 21.3189 15 21.3891 15 21.3891C15 21.3891 21.1636 21.3799 25.2685 21.0808C25.8414 21.0115 27.0917 21.006 28.2073 19.8289C29.0864 18.9326 29.3733 16.897 29.3733 16.897C29.3733 16.897 29.6666 14.5069 29.6666 12.1159V9.87441C29.6666 7.48432 29.3733 5.09332 29.3733 5.09332Z" fill="white"/>
</svg>
